<?xml version="1.0" encoding="utf-8"?>
<!-- Generator: Adobe Illustrator 24.1.2, SVG Export Plug-In . SVG Version: 6.00 Build 0)  -->
<svg version="1.1" id="Layer_1" xmlns="http://www.w3.org/2000/svg" xmlns:xlink="http://www.w3.org/1999/xlink" x="0px" y="0px"
	 viewBox="0 0 527.4 62.1" style="enable-background:new 0 0 527.4 62.1;" xml:space="preserve">
<style type="text/css">
	.st0{fill:#19054C;}
	.st1{fill:#460B68;}
</style>
<path class="st0" d="M1.5,1.8h31.7c4.7,0,8.8,1,12,3c3.3,2,5.7,4.6,7.3,8c1.6,3.3,2.4,7.1,2.4,11.3s-0.9,8-2.7,11.3
	c-1.8,3.3-4.4,6-7.8,7.9c-3.3,1.9-7.2,2.9-11.6,2.9H21.2v14.4H1.5V1.8z M28.3,30.9c2.1,0,3.8-0.6,4.9-1.8c1.2-1.2,1.7-2.9,1.7-5
	c0-2.3-0.5-4-1.6-5.2c-1-1.2-2.6-1.8-4.7-1.8h-7.5v13.9H28.3z"/>
<path class="st0" d="M71.9,58.7c-4.3-1.8-7.7-4.5-10.1-8.1c-2.4-3.6-3.7-7.9-3.7-13V1.8h19.6v33.6c0,6.3,3,9.5,8.9,9.5
	c6,0,8.9-3.2,8.9-9.5V1.8h19.6v35.9c0,5.1-1.2,9.4-3.7,13c-2.4,3.6-5.8,6.3-10.1,8.1c-4.3,1.8-9.2,2.7-14.8,2.7
	C81.1,61.5,76.2,60.6,71.9,58.7z"/>
<path class="st0" d="M122.1,1.8h31.8c7.1,0,12.5,2,16.2,5.9c3.7,3.9,5.5,9.1,5.5,15.6c0,3.8-1,7.3-2.9,10.3c-1.9,3-4.5,5.5-7.7,7.4
	c1.2,0.9,2.1,2.3,2.9,4l6.8,15.7h-20.5l-6-13.6c-0.4-0.9-0.9-1.6-1.4-1.9c-0.5-0.4-1.3-0.5-2.2-0.5h-2.8v16.1h-19.6V1.8z M149,29.3
	c2.1,0,3.8-0.5,4.9-1.6c1.1-1,1.7-2.6,1.7-4.6c0-4.1-2-6.2-6.1-6.2h-7.7v12.3H149z"/>
<path class="st0" d="M181,1.8h31.7c4.7,0,8.8,1,12,3c3.3,2,5.7,4.6,7.3,8c1.6,3.3,2.4,7.1,2.4,11.3s-0.9,8-2.7,11.3
	c-1.8,3.3-4.4,6-7.8,7.9c-3.3,1.9-7.2,2.9-11.6,2.9h-11.7v14.4H181V1.8z M207.8,30.9c2.1,0,3.8-0.6,4.9-1.8c1.2-1.2,1.7-2.9,1.7-5
	c0-2.3-0.5-4-1.6-5.2c-1-1.2-2.6-1.8-4.7-1.8h-7.5v13.9H207.8z"/>
<path class="st0" d="M238.1,1.8h19.6v43.8h25.2v15h-44.8V1.8z"/>
<path class="st0" d="M286.6,1.8h45.7v14.5h-26.1v7.5H329v14.9h-22.7V46h26.1v14.5h-45.7V1.8z"/>
<path class="st1" d="M365.8,60.5c-3.7-0.7-6.8-1.6-9.4-2.8V42.3c2.9,1.3,6,2.4,9.5,3.3s6.6,1.3,9.4,1.3c2.6,0,4.5-0.3,5.7-0.8
	c1.2-0.5,1.9-1.4,1.9-2.7c0-1.2-0.6-2.1-1.7-2.7c-1.2-0.6-3.3-1.5-6.5-2.5c-0.9-0.2-2.1-0.6-3.5-1.1c-4-1.3-7-2.8-9.2-4.3
	c-2.2-1.6-3.8-3.4-4.7-5.6c-1-2.2-1.5-4.9-1.5-8.2c0-12.1,8.4-18.1,25.1-18.1c3,0,6.3,0.3,9.9,0.8s6.6,1.2,9,1.9V19
	c-5.7-2.3-10.9-3.4-15.6-3.4c-2.6,0-4.7,0.2-6.2,0.6c-1.5,0.4-2.2,1.2-2.2,2.5c0,0.8,0.3,1.4,1,1.9c0.6,0.5,1.6,0.9,2.7,1.3
	c1.2,0.4,3.3,0.9,6.3,1.7c4.7,1.3,8.3,2.8,10.8,4.7c2.5,1.8,4.2,3.9,5.1,6.3s1.4,5.3,1.4,8.7c0,5.6-2.2,10-6.5,13.3
	c-4.4,3.3-10.7,4.9-19,4.9C373.3,61.5,369.4,61.1,365.8,60.5z"/>
<path class="st1" d="M479.9,1.8h20.5l22.6,58.8h-20.5l-4.6-11.7h-15.8l-4.5,11.7h-20.5L479.9,1.8z M495.7,35.2l-5.6-14.2l-5.5,14.2
	H495.7z"/>
<path class="st1" d="M409.5,38.4c0.1,0,8,3.6,15.2,2.5c4.9-0.8,7.1-1.6,8.8-2.3c1.2-0.5,2.3-0.9,3.8-1.2c0.3-0.1,0.7-0.1,1-0.2
	c3.2-0.7,7.9-1.7,15.8,1.6V25.3l-1.2-0.5c-6.9-3.2-10.4-2.4-13.4-1.8c-0.4,0.1-0.8,0.2-1.2,0.2c-1,0.2-1.7,0.5-2.8,0.9
	c-1.9,0.7-4.5,1.7-10,2.6c-7.2,1.1-14.5-1.3-17.4-2.4v13.4L409.5,38.4z"/>
<path class="st1" d="M452.9,3.8c-6.9-3.2-10.4-2.4-13.4-1.8c-0.4,0.1-0.8,0.2-1.2,0.2c-1,0.2-1.7,0.5-2.8,0.9
	c-1.9,0.7-4.5,1.7-10,2.6c-7.2,1.1-14.4-1.3-17.3-2.4v14.4l1.3,0.6c0.1,0,8,3.6,15.2,2.5c4.9-0.8,7.1-1.6,8.8-2.3
	c1.2-0.5,2.3-0.9,3.8-1.2c0.3-0.1,0.7-0.1,1-0.2c3.2-0.7,7.9-1.7,15.8,1.6V4.3L452.9,3.8z"/>
<path class="st1" d="M409.4,59.1c0,0,1.1,0.5,2.9,1.1c0,0,0,0,0,0c3,1,7.7,2.1,12.3,1.4c4.9-0.8,7.1-1.6,8.8-2.3
	c1.2-0.5,2.3-0.9,3.8-1.2c0.3-0.1,0.7-0.1,1-0.2c0.9-0.2,2-0.4,3.2-0.6c2.4-0.3,5-0.2,8,0.6c0,0,0,0,0,0c0.1,0,0.1,0,0.2,0.1
	c1.4,0.4,2.9,0.9,4.5,1.5V45.3l-1.2-0.5c-6.9-3.2-10.4-2.4-13.4-1.7c-0.4,0.1-0.8,0.2-1.2,0.2c-1,0.2-1.7,0.5-2.8,0.9
	c-1.9,0.7-4.5,1.7-10,2.6c-7.2,1.1-14.5-1.3-17.4-2.4v14.2L409.4,59.1z"/>
</svg>
